<svg width="262" height="40" viewBox="0 0 262 40" fill="none" xmlns="http://www.w3.org/2000/svg">
<path d="M247.076 34.013C247.512 34.2539 247.84 34.7342 247.009 35.0779L246.87 35.1332C241.754 37.1479 236.397 38.484 230.934 39.1072C230.439 39.1635 230.03 38.9974 229.972 38.7261L229.57 36.8239C229.501 36.5017 229.9 36.1997 230.446 36.0961C234.181 35.3948 237.831 34.305 241.339 32.8445C241.389 32.8259 241.63 32.7267 241.692 32.7032C241.902 32.6172 242.093 32.4929 242.257 32.3364C242.409 32.1621 242.426 32.0748 242.377 31.7865C242.357 31.6687 242.473 31.5064 242.578 31.5603L247.076 34.013Z" fill="#E56424"/>
<path d="M257.864 24.9324C258.288 24.956 258.607 25.3055 258.235 25.7507C258.151 25.8512 258.07 25.944 258.002 26.0204C255.643 28.6243 252.956 30.9094 250.006 32.8179C249.817 32.9449 249.603 33.0304 249.379 33.069C249.155 33.1075 248.925 33.0981 248.704 33.0415L244.835 31.6134C244.441 31.4679 244.45 31.0908 244.864 30.7855C246.856 29.3498 248.681 27.696 250.305 25.855C250.336 25.8244 250.465 25.6708 250.49 25.6374C250.724 25.3269 250.631 25.0893 250.479 24.8116C250.418 24.7023 250.451 24.5334 250.579 24.5402L257.864 24.9324Z" fill="#E56424"/>
<path d="M259.504 22.8588L259.501 22.8647C259.368 23.0437 259.197 23.1903 259 23.2934C258.803 23.3964 258.584 23.4532 258.362 23.4594L252.396 23.6042C251.951 23.6151 251.74 23.3687 251.907 23.0517C252.954 21.0576 253.534 19.3194 253.715 17.5352C253.719 17.5286 253.741 17.2853 253.75 17.1385C253.76 17.0338 253.74 16.9283 253.692 16.8347C253.644 16.7411 253.57 16.6633 253.479 16.6107C253.375 16.5249 253.328 16.3358 253.46 16.3026L261.362 14.4124C261.695 14.3328 262.007 14.4039 262 14.92C261.992 15.3254 261.963 15.7301 261.913 16.1325C261.64 18.2422 260.852 20.5015 259.504 22.8588Z" fill="#E56424"/>
<path d="M260.666 13.2584L254.566 14.971C254.059 15.1123 253.651 14.9886 253.595 14.6864C253.304 13.1043 252.999 11.991 252.043 10.8189C251.984 10.7466 251.855 10.5761 251.786 10.5075C251.538 10.2572 251.448 10.1005 250.997 10.0899C250.849 10.0864 250.701 9.88313 250.853 9.80729L258.026 6.38423C258.123 6.33813 258.232 6.32333 258.338 6.3419C258.444 6.36047 258.541 6.41148 258.617 6.48787C260.186 8.05532 261.258 10.0502 261.7 12.2234C261.805 12.7364 261.289 13.0834 260.666 13.2584Z" fill="#4683DE"/>
<path d="M254.753 3.56829L254.154 4.09518L249.262 7.83716C249.156 7.75802 249.172 7.90782 249.067 7.83716C248.81 7.65085 248.639 7.41955 248.372 7.23348C247.22 6.45658 245.958 5.85743 244.627 5.45611C244.218 5.34447 243.951 5.22058 243.571 5.35742C243.432 5.40759 243.22 5.27946 243.327 5.17771L247.258 1.43055C247.365 1.32865 247.493 1.25277 247.634 1.20881C247.775 1.16485 247.924 1.154 248.07 1.17711C250.215 1.51959 252.727 2.59858 254.391 3.36926C254.518 3.42331 254.639 3.48999 254.753 3.56829Z" fill="#4683DE"/>
<path d="M255.557 4.09783L249.839 8.56196C249.708 8.4588 249.328 8.16155 249.222 8.07911L254.897 3.64819C255.011 3.73464 255.423 3.9909 255.557 4.09783Z" fill="#4683DE"/>
<path d="M256.215 5.79035L250.58 8.79721C250.501 8.82927 250.415 8.84262 250.33 8.8362C250.245 8.82979 250.163 8.80379 250.089 8.76023C250.02 8.70488 249.8 8.53153 249.707 8.45851L255.557 4.09778C255.893 4.36605 256.264 4.67955 256.509 4.92451C256.686 5.10069 256.702 5.51971 256.215 5.79035Z" fill="#4683DE"/>
<path d="M245.581 1.6427L243.29 3.873C242.976 4.1792 242.243 4.65027 241.89 4.58856C239.761 4.23073 237.595 4.14722 235.444 4.34007C230.218 4.72941 224.606 6.32894 219.516 8.81221C219.118 9.00605 218.426 9.20296 218.039 9.40364C218.036 9.40364 218.067 9.5068 218.066 9.51057C218.045 9.51807 218.026 9.53109 218.012 9.54826L217.701 8.83411C217.712 8.82587 217.681 8.81221 217.681 8.81221C217.943 8.63061 218.209 8.48245 218.211 8.48245C225.061 4.26305 233.081 1.3756 240.68 0.810076C242.252 0.687645 243.831 0.677491 245.404 0.779691C245.906 0.81408 245.995 1.24111 245.581 1.6427Z" fill="#4683DE"/>
<path d="M257.608 1.58863L256.96 2.18524L256.181 2.79081L233.4 20.481L238.371 31.5237C238.422 31.636 238.443 31.7592 238.434 31.882C238.425 32.0049 238.385 32.1234 238.318 32.2268C238.251 32.3302 238.159 32.4152 238.051 32.4741C237.943 32.5329 237.822 32.5637 237.699 32.5636H228.379L225.569 26.3242L217.933 32.0165C214.549 34.6243 221.79 36.7581 226.504 36.6377C226.534 36.6393 226.787 36.6325 226.818 36.6304C227.347 36.5833 227.796 36.4681 228.145 35.977C228.243 35.8357 228.481 35.8051 228.485 35.9193L228.607 38.7604C228.623 39.1681 228.014 39.5362 227.373 39.5141C223.291 39.4014 219.246 38.7063 215.361 37.4498C212.155 36.3826 209.466 34.9739 207.324 33.3211C207.309 33.3173 207.305 33.3093 207.294 33.302C206.882 32.9678 206.583 32.6986 206.762 32.5881L207.546 32.0909L223.59 21.9369L218.012 9.54954L217.692 8.83704L217.681 8.81349H227.335C227.844 8.81349 228.235 9.01558 228.391 9.35687L231.398 16.0388L230.075 17.8355L256.926 0.85328C257.581 0.393277 258.123 1.15288 257.608 1.58863Z" fill="#E56424"/>
<path d="M213.753 8.81262H203.246L203.223 13.4963L195.082 32.5644H202.015C202.897 32.5644 203.864 31.9741 204.175 31.2454L213.753 8.81262Z" fill="#E56424"/>
<path d="M198.164 8.81638H193.724C192.849 8.81638 191.89 9.40522 191.581 10.1321L186.928 21.0916C186.805 21.3806 186.334 21.4489 186.186 21.199L180.76 9.28298C180.646 9.12407 180.493 8.99751 180.315 8.91571C180.137 8.8339 179.942 8.79968 179.747 8.81638H173.041L173.03 8.81968H169.506L169.484 13.4598L161.398 32.5043H168.243C169.118 32.5043 170.078 31.9155 170.386 31.1886L174.582 21.3128L175.016 16.2692L177.075 21.1465L177.066 21.1505L182.107 32.0363C182.22 32.1957 182.373 32.3227 182.551 32.4048C182.729 32.4868 182.925 32.5212 183.119 32.5043H188.924C189.799 32.5043 190.759 31.9155 191.067 31.1886L200.566 8.81638H198.164Z" fill="#E56424"/>
<path d="M134.394 8.79145C123.293 21.802 126.323 18.2332 114.973 31.6621C114.736 31.9329 114.446 32.152 114.121 32.306C113.795 32.46 113.442 32.5455 113.082 32.5571H102.336C102.43 17.5103 102.417 22.01 102.398 8.79004H110.226C110.903 8.79004 111.354 9.14334 111.354 9.67424L111.32 23.4725L109.666 27.3939L112.031 24.6009L125.432 8.79145H134.394Z" fill="#E56424"/>
<path d="M164.704 14.9659C166.148 11.5553 163.997 8.79126 159.9 8.79126H143.769C139.67 8.79126 135.178 11.5553 133.733 14.9659L128.908 26.3543C127.464 29.7644 129.614 32.5289 133.711 32.5289H149.844C153.942 32.5289 158.435 29.7644 159.879 26.3543L164.704 14.9659ZM151.754 25.5429C151.631 25.777 151.447 25.9736 151.222 26.1123C150.996 26.2509 150.738 26.3266 150.473 26.3312H138.333C137.81 26.3312 137.536 25.9779 137.721 25.5429L141.665 16.2403L139.263 14.9034H155.315C155.838 14.9034 156.113 15.2567 155.927 15.692L151.754 25.5429Z" fill="#E56424"/>
<path d="M70.5025 13.4621L62.4151 32.5104H69.2902C70.165 32.5104 71.125 31.9216 71.4336 31.1947L73.2927 26.8203C73.334 26.7422 73.3955 26.6766 73.4709 26.6303C73.5462 26.5841 73.6325 26.5588 73.7209 26.5572L80.1275 26.5509C80.2215 26.5547 80.3134 26.5801 80.3962 26.625C80.4789 26.6699 80.5502 26.7332 80.6047 26.81L83.0655 32.8986H91.2493C92.1358 32.8969 92.8432 32.115 92.5447 31.4602L90.1423 26.1559C90.0841 26.0277 90.2129 25.8542 90.4112 25.779C93.1748 24.7328 95.6197 22.7093 96.6162 20.3633L98.904 14.9721C100.353 11.5568 98.1939 8.78833 94.0807 8.78833H70.5249L70.5025 13.4621ZM89.1038 14.7215C89.8851 14.7215 90.2951 15.2477 90.0198 15.8964L88.5142 19.4431C88.2356 20.0889 87.3837 20.612 86.6045 20.612H75.9323L77.7768 16.272L74.6856 14.7215H89.1038Z" fill="#4683DE"/>
<path d="M0.457104 26.3709C-1.00322 29.7893 1.15147 32.5655 5.26771 32.5655H22.0726C22.9476 32.5655 23.9076 31.9767 24.2159 31.2498L26.2936 26.357H9.9523C9.42682 26.357 9.15148 26.0037 9.33661 25.5673L13.2767 16.2932L10.718 14.9073H29.5699C30.445 14.9073 31.405 14.3185 31.7133 13.5912L33.7571 8.7782H15.4022C11.3 8.7782 6.80105 11.534 5.34473 14.9408L0.457104 26.3709Z" fill="#4683DE"/>
<path d="M56.4259 8.8313L45.3902 8.84166L45.3742 12.1493L26.816 30.8587L25.0646 32.5647H30.1522L34.0621 32.5061C34.5994 32.4897 35.112 32.2764 35.5022 31.9066L35.9805 31.4501L33.4271 29.9375H51.0714L51.3731 31.9007C51.4306 32.2724 51.7453 32.5061 52.1895 32.5061L60.6316 32.5647L56.4259 8.8313ZM43.0985 24.2893L49.1953 18.1122L50.2027 24.2893H43.0985Z" fill="#4683DE"/>
</svg>
